GRF
version=1
nRows=12
nColumns=28
inDegrees=no
endheader
time	plate1_ground_force_vx	plate1_ground_force_vy	plate1_ground_force_vz	plate1_ground_force_px	plate1_ground_force_py	plate1_ground_force_pz	plate1_ground_torque_x	plate1_ground_torque_y	plate1_ground_torque_z	plate2_ground_force_vx	plate2_ground_force_vy	plate2_ground_force_vz	plate2_ground_force_px	plate2_ground_force_py	plate2_ground_force_pz	plate2_ground_torque_x	plate2_ground_torque_y	plate2_ground_torque_z	plate3_ground_force_vx	plate3_ground_force_vy	plate3_ground_force_vz	plate3_ground_force_px	plate3_ground_force_py	plate3_ground_force_pz	plate3_ground_torque_x	plate3_ground_torque_y	plate3_ground_torque_z
      0.64000000	     22.62149951	    541.05817183	      4.84964694	      0.28949632	      0.00000000	      0.18606394	      0.00000000	     -3.88340682	      0.00000000	      0.00000000	      0.00000000	      0.00000000	      0.00000000	      0.00000000	      0.00000000	      0.00000000	      0.00000000	      0.00000000	      0.00000000	      0.00000000	      0.00000000	      0.00000000	      0.00000000	      0.00000000	      0.00000000	      0.00000000	      0.00000000
      0.65000000	     26.25355648	    557.83374778	      5.11278550	      0.29294790	      0.00000000	      0.18709159	      0.00000000	     -3.78149400	      0.00000000	      0.00000000	      0.00000000	      0.00000000	      0.00000000	      0.00000000	      0.00000000	      0.00000000	      0.00000000	      0.00000000	      0.00000000	      0.00000000	      0.00000000	      0.00000000	      0.00000000	      0.00000000	      0.00000000	      0.00000000	      0.00000000
      0.66000000	     30.55127868	    574.55375307	      5.55343978	      0.29616420	      0.00000000	      0.18801473	      0.00000000	     -3.63826916	      0.00000000	      0.00000000	      0.00000000	      0.00000000	      0.00000000	      0.00000000	      0.00000000	      0.00000000	      0.00000000	      0.00000000	      0.00000000	      0.00000000	      0.00000000	      0.00000000	      0.00000000	      0.00000000	      0.00000000	      0.00000000	      0.00000000
      0.67000000	     35.64261741	    590.90183430	      6.07027604	      0.29907904	      0.00000000	      0.18883881	      0.00000000	     -3.47537602	      0.00000000	      0.00000000	      0.00000000	      0.00000000	      0.00000000	      0.00000000	      0.00000000	      0.00000000	      0.00000000	      0.00000000	      0.00000000	      0.00000000	      0.00000000	      0.00000000	      0.00000000	      0.00000000	      0.00000000	      0.00000000	      0.00000000
      0.68000000	     41.57738385	    606.45756289	      6.60348572	      0.30165871	      0.00000000	      0.18956110	      0.00000000	     -3.30697298	      0.00000000	      0.00000000	      0.00000000	      0.00000000	      0.00000000	      0.00000000	      0.00000000	      0.00000000	      0.00000000	      0.00000000	      0.00000000	      0.00000000	      0.00000000	      0.00000000	      0.00000000	      0.00000000	      0.00000000	      0.00000000	      0.00000000
      0.69000000	     48.31870762	    620.68900839	      7.13614540	      0.30390611	      0.00000000	      0.19017428	      0.00000000	     -3.13788491	      0.00000000	      0.00000000	      0.00000000	      0.00000000	      0.00000000	      0.00000000	      0.00000000	      0.00000000	      0.00000000	      0.00000000	      0.00000000	      0.00000000	      0.00000000	      0.00000000	      0.00000000	      0.00000000	      0.00000000	      0.00000000	      0.00000000
      0.70000000	     55.74762530	    632.97239433	      7.67666460	      0.30585576	      0.00000000	      0.19067327	      0.00000000	     -2.96498734	     -0.00000000	      0.00000000	      0.00000000	      0.00000000	      0.00000000	      0.00000000	      0.00000000	      0.00000000	      0.00000000	      0.00000000	      0.00000000	      0.00000000	      0.00000000	      0.00000000	      0.00000000	      0.00000000	      0.00000000	      0.00000000	      0.00000000
      0.71000000	     63.67635237	    642.62682949	      8.23385209	      0.30756222	      0.00000000	      0.19106146	      0.00000000	     -2.78066473	     -0.00000000	      0.00000000	      0.00000000	      0.00000000	      0.00000000	      0.00000000	      0.00000000	      0.00000000	      0.00000000	      0.00000000	      0.00000000	      0.00000000	      0.00000000	      0.00000000	      0.00000000	      0.00000000	      0.00000000	      0.00000000	      0.00000000
      0.72000000	     71.86570701	    648.94572101	      8.79530001	      0.30908688	      0.00000000	      0.19135325	      0.00000000	     -2.57686392	     -0.00000000	      0.00000000	      0.00000000	      0.00000000	      0.00000000	      0.00000000	      0.00000000	      0.00000000	      0.00000000	      0.00000000	      0.00000000	      0.00000000	      0.00000000	      0.00000000	      0.00000000	      0.00000000	      0.00000000	      0.00000000	      0.00000000
      0.73000000	     80.04328018	    651.21110205	      9.31535677	      0.31048687	      0.00000000	      0.19157194	      0.00000000	     -2.34850996	     -0.00000000	      0.00000000	      0.00000000	      0.00000000	      0.87799168	      0.00000000	      0.23764092	      0.00000000	      0.00000000	      0.00000000	      0.00000000	      0.00000000	      0.00000000	      0.00000000	      0.00000000	      0.00000000	      0.00000000	      0.00000000	      0.00000000
      0.74000000	     87.91905360	    648.69093687	      9.71498966	      0.31180850	      0.00000000	      0.19174431	      0.00000000	     -2.09550240	     -0.00000000	      0.00000000	      0.00000000	      0.00000000	      0.87799168	      0.00000000	      0.23764092	      0.00000000	      0.00000000	      0.00000000	      0.00000000	      0.00000000	      0.00000000	      0.00000000	      0.00000000	      0.00000000	      0.00000000	      0.00000000	      0.00000000
      0.75000000	     95.19437747	    640.63416336	      9.89365458	      0.31308541	      0.00000000	      0.19189415	      0.00000000	     -1.82297981	     -0.00000000	      0.00000000	      0.00000000	      0.00000000	      0.87799168	      0.00000000	      0.23764092	      0.00000000	      0.00000000	      0.00000000	      0.00000000	      0.00000000	      0.00000000	      0.00000000	      0.00000000	      0.00000000	      0.00000000	      0.00000000	      0.00000000
